<?xml version="1.0" encoding="UTF-8"?>
<svg width="223px" height="223px" viewBox="0 0 223 223" version="1.1" xmlns="http://www.w3.org/2000/svg" xmlns:xlink="http://www.w3.org/1999/xlink">
    <!-- Generator: Sketch 43.2 (39069) - http://www.bohemiancoding.com/sketch -->
    <title>Page 1</title>
    <desc>Created with Sketch.</desc>
    <defs></defs>
    <g id="Page-1" stroke="none" stroke-width="1" fill="none" fill-rule="evenodd" opacity="0.8">
        <g id="Desktop" transform="translate(-710.000000, -1283.000000)" fill="#000000">
            <g id="Page-1" transform="translate(710.000000, 1283.000000)">
                <path d="M0,0 L0,37.1518 L223,37.1518 L223,0 L0,0 Z M134.7143,23.2143 L23.2143,23.2143 L23.2143,13.937054 L134.7143,13.937054 L134.7143,23.2143 Z M167.25,23.2143 L157.972754,23.2143 L157.972754,13.937054 L167.25,13.937054 L167.25,23.2143 Z M185.847754,23.2143 L176.570508,23.2143 L176.570508,13.937054 L185.847754,13.937054 L185.847754,23.2143 Z M204.402023,23.2143 L195.124777,23.2143 L195.124777,13.937054 L204.402023,13.937054 L204.402023,23.2143 Z" id="Fill-1"></path>
                <path d="M0,223 L223,223 L223,46.4286 L0,46.4286 L0,223 Z M97.5625,130.0536 L120.7768,130.0536 L120.7768,139.374331 L97.5625,139.374331 L97.5625,130.0536 Z M60.4107,116.1161 L60.4107,106.838854 L97.5625,106.838854 L97.5625,116.1161 L60.4107,116.1161 Z M125.4375,116.1161 L106.839746,116.1161 L106.839746,106.838854 L125.4375,106.838854 L125.4375,116.1161 Z M144.035254,153.3125 L144.035254,162.589746 L125.4375,162.589746 L125.4375,153.3125 L144.035254,153.3125 Z M125.4375,176.5268 L125.4375,185.804046 L74.3482,185.804046 L74.3482,176.5268 L125.4375,176.5268 Z M139.375,209.0625 L83.625,209.0625 L83.625,199.785254 L139.375,199.785254 L139.375,209.0625 Z M162.5893,209.0625 L148.6518,209.0625 L148.6518,199.785254 L162.5893,199.785254 L162.5893,209.0625 Z M167.249554,185.8036 L134.713854,185.8036 L134.713854,176.526354 L167.249554,176.526354 L167.249554,185.8036 Z M190.463854,162.5893 L153.312054,162.5893 L153.312054,153.312054 L190.463854,153.312054 L190.463854,162.5893 Z M204.401354,116.1161 L134.713854,116.1161 L134.713854,106.838854 L204.401354,106.838854 L204.401354,116.1161 Z M148.651354,83.625 L162.588854,83.625 L162.588854,92.902246 L148.651354,92.902246 L148.651354,83.625 Z M139.374108,92.902246 L83.624108,92.902246 L83.624108,83.625 L139.374108,83.625 L139.374108,92.902246 Z M97.561608,60.366546 L120.775908,60.366546 L120.775908,69.687277 L97.561608,69.687277 L97.561608,60.366546 Z M46.472308,60.366546 L88.284808,60.366546 L88.284808,69.687277 L46.472308,69.687277 L46.472308,60.366546 Z M46.472308,83.625446 L74.347308,83.625446 L74.347308,92.902692 L46.472308,92.902692 L46.472308,83.625446 Z M46.472308,130.054046 L88.284808,130.054046 L88.284808,139.374777 L46.472308,139.374777 L46.472308,130.054046 Z M46.472308,153.312946 L116.159808,153.312946 L116.159808,162.590192 L46.472308,162.590192 L46.472308,153.312946 Z M46.472308,199.741546 L74.347308,199.741546 L74.347308,209.062277 L46.472308,209.062277 L46.472308,199.741546 Z M18.597308,60.366546 L32.534808,60.366546 L32.534808,69.687277 L18.597308,69.687277 L18.597308,60.366546 Z M18.597308,83.625446 L32.534808,83.625446 L32.534808,92.902692 L18.597308,92.902692 L18.597308,83.625446 Z M18.597308,106.839746 L32.534808,106.839746 L32.534808,116.116992 L18.597308,116.116992 L18.597308,106.839746 Z M18.597308,130.054046 L32.534808,130.054046 L32.534808,139.374777 L18.597308,139.374777 L18.597308,130.054046 Z M18.597308,153.312946 L32.534808,153.312946 L32.534808,162.590192 L18.597308,162.590192 L18.597308,153.312946 Z M18.597308,176.527246 L32.534808,176.527246 L32.534808,185.804492 L18.597308,185.804492 L18.597308,176.527246 Z M18.597308,199.741546 L32.534808,199.741546 L32.534808,209.062277 L18.597308,209.062277 L18.597308,199.741546 Z" id="Fill-2"></path>
            </g>
        </g>
    </g>
</svg>