<?xml version="1.0" encoding="UTF-8"?>
<svg width="350px" height="259px" viewBox="0 0 350 259" version="1.1" xmlns="http://www.w3.org/2000/svg" xmlns:xlink="http://www.w3.org/1999/xlink">
    <!-- Generator: Sketch 43.2 (39069) - http://www.bohemiancoding.com/sketch -->
    <title>Page 1</title>
    <desc>Created with Sketch.</desc>
    <defs></defs>
    <g id="Page-1" stroke="none" stroke-width="1" fill="none" fill-rule="evenodd" fill-opacity="0.8">
        <g id="Desktop" transform="translate(-115.000000, -614.000000)" fill="#000000">
            <path d="M426.365817,735.037461 C425.838506,734.417084 425.714431,734.324017 425.590355,734.246475 C424.830418,733.750174 424.737352,733.70364 424.644286,733.657107 C423.791282,733.408956 423.651682,733.408956 423.527607,733.393472 C422.659079,733.408956 422.550528,733.408956 422.441938,733.439965 C421.588934,733.688116 421.480383,733.750174 421.371792,733.812191 C420.611855,734.324017 420.503265,734.401559 420.425723,734.51015 C420.084505,734.913385 400.992619,762.272106 400.992619,762.272106 C400.977095,762.272106 369.880827,806.891241 369.880827,806.891241 L319.833781,735.098208 C319.833781,735.082723 293.855373,697.813615 293.855373,697.813615 L293.855373,662.37451 L311.055199,662.37451 L311.055199,671.881662 C311.132741,672.486554 311.132741,672.595105 311.148226,672.688172 C311.427425,673.525691 311.489443,673.649766 311.566985,673.758317 C312.078811,674.456236 312.156353,674.564827 312.233895,674.642369 C313.071414,675.262746 313.242023,675.355812 313.428116,675.433354 C314.513786,675.743523 314.746452,675.759047 314.979078,675.759047 L336.071893,675.759047 L336.071893,685.281684 C336.133911,685.886576 336.149435,686.010652 336.164959,686.088194 C336.428595,686.925673 336.490652,687.034264 336.568195,687.142815 C337.08002,687.840734 337.157563,687.949325 337.250589,688.026867 C338.088108,688.647244 338.274241,688.74031 338.460334,688.817852 C339.530519,689.112536 339.763146,689.143545 339.995772,689.143545 L373.496125,689.143545 C375.636416,689.143545 377.388995,687.40649 377.388995,685.250675 L377.388995,644.692914 C377.388995,642.552624 375.65194,640.800044 373.496125,640.800044 L352.40331,640.800044 L352.40331,631.292892 C352.40331,629.152602 350.666255,627.400022 348.51044,627.400022 L327.417625,627.400022 L327.417625,617.89287 C327.417625,615.75258 325.68057,614 323.524755,614 L290.024402,614 C287.884112,614 286.131532,615.737055 286.131532,617.89287 L286.131532,697.765653 L260.153125,735.003752 L210.106079,806.828112 L160.011388,734.971591 C159.468553,734.351215 159.360002,734.258188 159.251451,734.180646 C158.506999,733.684344 158.398408,733.637811 158.289857,733.591278 C157.467862,733.358612 157.343787,733.358612 157.235196,733.343127 C156.33566,733.358612 156.211584,733.374136 156.087509,733.38966 C155.25003,733.653296 155.156963,733.699829 155.063897,733.746362 C154.288436,734.273672 154.16436,734.366739 154.071294,734.459805 C153.730116,734.847516 115.70092,789.362268 115.70092,789.362268 C114.475691,791.130333 114.89445,793.549862 116.662515,794.775131 C117.344949,795.240424 118.12041,795.473051 118.895871,795.473051 C120.121101,795.473051 121.330846,794.899207 122.090822,793.813537 L139.895731,768.269493 L173.752627,768.269493 L245.112846,870.614849 C245.872823,871.684994 247.067043,872.274362 248.307797,872.274362 C249.083258,872.274362 249.858719,872.041696 250.52563,871.576443 C252.278209,870.351213 252.727978,867.931724 251.487224,866.16358 L214.838334,813.603263 L265.413445,741.063792 L314.638615,741.063792 L365.197844,813.603263 L328.564439,866.16358 C327.33921,867.931644 327.757969,870.351174 329.526033,871.576443 C330.208428,872.05722 330.983929,872.274362 331.743866,872.274362 C332.969095,872.274362 334.17884,871.684994 334.938817,870.614849 L406.299036,768.269493 L440.155932,768.269493 L457.960848,793.813537 C458.705301,794.899207 459.915045,795.473051 461.155799,795.473051 C461.93126,795.473051 462.706722,795.240424 463.389156,794.775131 C465.095203,793.61192 465.529447,791.19247 464.288693,789.424207 L426.365817,735.037461 Z" id="Page-1"></path>
        </g>
    </g>
</svg>