<svg xmlns="http://www.w3.org/2000/svg" viewBox="0 0 864 397.8"><defs><style>.cls-1{fill:#ed1c24;}.cls-2{fill:#fff;}</style></defs><title>Asset 3</title><g id="Layer_2" data-name="Layer 2"><g id="Layer_1-2" data-name="Layer 1"><path class="cls-1" d="M863.93,174a40.12,40.12,0,0,0-25.38-34.79L831,16.06c-.94-9.4-8.44-16.92-18.79-16L33.84,43.32a18.55,18.55,0,0,0-16.91,18.8l6.58,122.21A44.74,44.74,0,0,0,0,223.83c.94,16.9,12.23,31,27.26,35.71l6.58,122.21c.95,9.4,8.47,16.92,18.81,16l780.26-43.23c9.39-.93,16.92-8.47,16-18.8l-8.44-123.15C855.47,205,864.88,190.91,863.93,174ZM26.32,229.44A8.45,8.45,0,1,1,34.79,221,8.41,8.41,0,0,1,26.32,229.44Zm813.17-45.11a8.46,8.46,0,1,1,8.46-8.46A8.44,8.44,0,0,1,839.49,184.33Z"/><path class="cls-2" d="M225.62,226.65,200.23,253l-54.51,2.82-29.14-23.49L114.7,206l42.3-2.82.94,12.22,23.5-1.89-1.89-28.19L141,188.09l-27.26-23.5-2.81-55.47L136.32,82.8,189.9,80,219,103.49l1.88,26.31-42.31,2.83-.93-12.22-23.51,1.87,1.89,28.21,36.66-3.76,29.14,23.51Zm142.89,16.9-91.19,4.71-29.14-23.5L241.6,102.54,267,76.23l53.58-3.76L349.71,96l6.58,110.92L346,218.18l21.62-1.89ZM314,207.83l-5.64-95-23.5,1.89,5.64,95Zm178.6,3.78-25.37,26.3-53.58,2.82L384.5,217.24,376,69.64l42.31-2.81,7.51,134.43,23.51-1.88-7.52-133.5,41.36-2.82ZM627,229.44l-41.38,2.84L580,208.77l-31,1.88-2.83,23.51L503.88,237,528.32,62.12,583.8,59.3Zm-56.42-60.16-11.27-44.17-5.66,45.13Zm173,29.16-25.38,26.32-80.86,4.68L628,56.48l80.85-4.69L738,75.28Zm-42.3-12.22-5.65-94.95-23.49,1.87,5.64,95Z"/><path class="cls-2" d="M134.44,276.46l20.67-.93,2.83,56.4,36.66-2.83.93,13.17-57.33,2.82ZM312.11,300.9c1.88,23.5-16,37.62-43.25,39.48s-44.18-13.15-45.13-33.84,16-37.6,42.31-39.48C294.24,267.06,310.23,282.1,312.11,300.9Zm-65.81,4.71c.94,13.15,9.39,23.49,23.5,22.55s21.63-11.28,20.69-24.44S282,280.21,267,281.17,245.36,292.43,246.3,305.61ZM421.16,329.1c-3.76,1.88-12.22,3.77-23.51,3.77-32,1.87-48.88-13.18-49.82-32.9-1.88-23.51,19.74-38.55,47.94-39.48,10.34-.95,18.81.93,23.5,1.86l-2.81,13.18c-3.77-1-10.35-2.83-17.86-1.89-16,.93-29.14,9.41-28.21,24.44.94,14.11,12.23,22.57,30.08,21.61,6.58,0,13.17-1.86,17.87-2.81Zm37.6-70.51,20.68-.93,1.88,31a52.74,52.74,0,0,1,5.63-7.51l18.81-24.45,25.38-1.88-28.2,31,34.78,38.54-23.48.94-24.46-28.2-7.52,7.52,1.89,23.5-20.68.94-4.71-70.51Zm168.28,31L593.2,291.5l.93,16.93,37.59-2.82,1,13.15-58.29,2.82-3.77-70.49L627,248.26l.93,13.16-35.73,2.82,1,14.11L627,276.46Zm42.3-41.36c6.57-1.88,16.92-2.82,28.19-2.82,13.18-.94,23.51,0,30.09,3.76,5.64,2.82,8.46,7.52,9.39,14.11,1,8.45-7.51,15-15,18.79,6.59,1.88,10.36,6.58,13.18,12.22,2.82,7.51,6.57,16.92,8.45,18.8l-21.63.94c-1.86-2.82-3.75-7.52-7.51-16-2.82-8.46-7.52-10.33-16-10.33h-6.57L693.78,315l-20.69.93Zm22.55,29.14,7.53-.94c10.34-.93,16-4.7,16-11.29s-6.57-9.4-16-8.45c-4.71,0-7.53.94-9.4.94Z"/><path class="cls-2" d="M86.49,378.93v-3.76l21.62-.95V378ZM63.93,378c-7.52-2.83-12.22-9.41-13.16-17.87v-.94h3.75v.94c0,6.58,3.78,12.22,9.41,14.09Zm64.86-.95v-3.77l21.63-.93v3.76ZM172,374.22v-3.76l21.63-.93v3.75Zm42.31-1.87v-3.76l21.63-.95v3.77Zm42.3-2.82v-3.75l21.62-1v3.77ZM299,367.64v-3.75l21.62-.94v3.76Zm43.24-1.86V362l21.62-.94v3.76ZM384.5,363v-3.76l21.61-.95V362Zm43.23-1.89v-3.75l21.63-.94v3.76ZM470,358.24v-3.75l21.62-.93v3.75Zm43.24-1.87V352.6l21.63-.93v3.76Zm42.3-1.88v-3.76l21.62-.94v3.77Zm43.24-2.82v-3.76l21.64-1v3.78Zm42.31-1.88V346l21.63-.93v3.75ZM684.38,347V343.2l21.62-.93V346Zm42.3-1.86v-3.77l21.62-.94v3.77Zm43.24-2.82v-3.75l21.61-1v3.76Zm42.3-1.89-1.86-3.75c6.57-2.83,10.33-7.53,10.33-14.1l-.93-17.87h3.75l.93,17.87C825.38,330.05,820.69,336.63,812.22,340.38Zm-762.4-1.86L48,317.83h3.76l.94,21.62ZM48,296.2l-1-21.63h3.77l.94,20.68Zm770.86-13.15-1.88-21.63h3.76l1.89,21.63ZM45.13,253V231.33h3.76L49.82,253Zm771.8-12.22L815,219.11h3.77l1.88,21.62ZM43.25,210.65,42.31,189h3.76L47,210.65ZM814.11,197.5l-1.88-21.63H816l1.87,21.63ZM40.43,167.41l-.94-21.62h3.76l1.88,21.62Zm771.8-12.22-1.87-21.62h3.75L816,155.19ZM38.55,125.11l-.94-21.62h3.75l1,21.62ZM809.41,112l-1.88-21.62h3.76L813.18,112ZM36.67,81.86l-.94-7.51a19.13,19.13,0,0,1,5.63-13.17L44.19,64a15.05,15.05,0,0,0-4.7,10.34l.94,7.51ZM806.59,69.64,804.7,48h3.77l1.89,21.62ZM63,59.3V55.54l21.62-1.88v3.76Zm43.24-2.82V52.72l21.62-1.87V54.6Zm42.3-1.88V50.85L170.16,49v3.76Zm43.25-2.81V48l21.62-1.88v3.77Zm42.3-1.88V46.14l21.61-1.88V48Zm43.24-2.83V43.32L299,41.44V45.2Zm42.31-1.88V41.44l21.62-1.87v3.75Zm43.25-2.82V38.62l21.62-1.88V40.5Zm42.29-2.81V35.8l21.62-1.88v3.76Zm42.3-1.89V33.92L468.15,32V35.8Zm42.31-2.82V31.11l21.63-1.89v4.7ZM533,33V29.22l21.62-1.88v3.77Zm42.3-2.82V26.4L597,24.53v3.75Zm43.24-2.82V23.59l20.68-.95V26.4Zm185.18,0c-2.8-5.64-7.5-9.4-14.08-9.4h-.94V14.18h.94c7.51,0,15,4.7,18.8,12.22ZM660.87,24.53V20.76l21.62-1.88v3.76Zm43.24-1.89V18.88L725.74,17v3.76Zm42.3-2.82V16.06l21.64-1.88v3.76Z"/></g></g></svg>