<?xml version="1.0" encoding="UTF-8"?>
<svg width="287px" height="287px" viewBox="0 0 287 287" version="1.1" xmlns="http://www.w3.org/2000/svg" xmlns:xlink="http://www.w3.org/1999/xlink">
    <!-- Generator: Sketch 43.2 (39069) - http://www.bohemiancoding.com/sketch -->
    <title>Group</title>
    <desc>Created with Sketch.</desc>
    <defs></defs>
    <g id="Page-1" stroke="none" stroke-width="1" fill="none" fill-rule="evenodd" opacity="0.8">
        <g id="Desktop" transform="translate(-106.000000, -1998.000000)" fill="#000000">
            <g id="Group" transform="translate(106.000000, 1998.000000)">
                <path d="M251.125,286.774038 L35.875,286.774038 C16.065399,286.774038 0,270.732448 0,250.9387 L0,224.053594 C0,209.703686 10.964261,196.608417 29.23956,186.09039 C30.6521453,185.048596 32.356093,184.432489 34.228481,184.432489 C38.892231,184.432489 42.670299,188.207588 42.670299,192.867674 C42.670299,195.992942 40.9438218,198.692637 38.410071,200.149164 L38.4324857,200.182774 C25.5174943,207.251191 17.9389723,215.518612 17.9389723,224.04327 L17.9389723,250.928377 C17.9389723,260.830983 25.9660753,268.851778 35.8764637,268.851778 L251.126464,268.851778 C261.036861,268.851778 269.063964,260.830983 269.063964,250.939561 L269.063964,224.054454 C269.063964,199.308972 212.840664,179.245944 143.501464,179.245944 C127.010157,179.245944 111.865454,173.622583 99.7339637,164.279758 C91.3931697,157.838516 84.5206677,149.604935 79.6551567,140.172922 C79.3973159,139.66883 79.1730828,139.187135 78.9376567,138.694256 C78.0744181,136.890703 77.2672306,135.053654 76.5497306,133.193922 C76.2806681,132.521808 76.0340203,131.827269 75.7985942,131.155127 C75.1707817,129.396397 74.6438784,127.592815 74.1729975,125.766922 C73.9712078,125.016376 73.7581964,124.265829 73.5788214,123.492886 C73.1527986,121.622142 72.827685,119.728971 72.5474008,117.802134 C72.4465203,117.0628 72.28956,116.345864 72.2110655,115.606531 C71.9083666,112.962815 71.7402133,110.285431 71.7402133,107.563367 L71.7402133,53.7931547 C71.751435,24.0747166 95.8436213,0 125.564193,0 L161.427713,0 C191.146563,0 215.240213,24.0732827 215.240213,53.7702128 L215.240213,107.540426 C215.240213,119.918759 211.921919,131.445658 206.38368,141.571952 C205.251379,145.212554 201.888112,147.867512 197.874704,147.867512 C192.919362,147.867512 188.905954,143.857257 188.905954,138.905809 C188.905954,137.393533 189.320755,135.982144 189.982204,134.73869 L189.881324,134.682683 C193.97337,127.703739 196.562971,119.739152 197.134675,111.203023 C197.257999,109.993179 197.31405,108.760966 197.31405,107.528869 L197.31405,53.7586558 C197.31405,33.9646216 181.259844,17.9118472 161.43905,17.9118472 L125.57553,17.9118472 C105.754736,17.9118472 89.7005298,33.9646216 89.7005298,53.7586558 L89.7005298,107.528869 C89.7005298,108.76111 89.7565809,109.993351 89.8799048,111.203023 C91.7184842,138.379492 113.770359,160.000566 141.135235,161.187813 C141.852735,161.266217 142.626286,161.299827 143.500746,161.299827 C158.758814,161.299827 173.457806,162.352834 187.245286,164.2797 C190.799207,164.772608 194.274461,165.332708 197.716194,165.937601 C197.805882,165.948814 197.895569,165.971211 197.974035,165.982424 C201.269943,166.576133 204.4875,167.225849 207.649092,167.920388 C208.019064,167.998792 208.377814,168.077197 208.747757,168.166814 C215.037075,169.578289 221.057474,171.18024 226.763608,172.950212 C227.043863,173.051042 227.324147,173.107049 227.59321,173.207879 C230.373522,174.081652 233.086677,175.022616 235.72105,175.986006 C236.001334,176.086807 236.28159,176.19885 236.550652,176.299651 C239.039487,177.218219 241.449742,178.181609 243.781617,179.189765 C243.972185,179.279382 244.174003,179.357786 244.375793,179.447403 C246.830992,180.511594 249.174146,181.586998 251.438576,182.729537 C251.730053,182.863976 251.999116,183.020785 252.2794,183.155225 C254.521588,184.286636 256.70781,185.46287 258.759286,186.6728 C258.804115,186.695197 258.860195,186.74002 258.905025,186.762417 C260.866928,187.927438 262.694286,189.114857 264.476843,190.32473 C264.790763,190.526361 265.12707,190.761602 265.44099,190.985659 C267.223519,192.240297 268.90508,193.517332 270.474683,194.816679 C270.642837,194.951119 270.822212,195.107927 270.979172,195.242367 C272.526274,196.553012 273.994968,197.886083 275.328944,199.241437 C275.396217,199.308657 275.46349,199.364664 275.530734,199.443068 C276.831188,200.787323 277.997154,202.153976 279.095848,203.543083 C279.342496,203.867941 279.600336,204.159189 279.835762,204.484076 C280.855961,205.861941 281.797666,207.25099 282.616075,208.66238 C282.705762,208.841614 282.806672,209.009635 282.907552,209.188869 C283.669882,210.555521 284.297723,211.933387 284.858262,213.33362 C284.936757,213.546464 285.048859,213.748095 285.116132,213.960939 C285.676672,215.439606 286.08028,216.940813 286.394172,218.452975 C286.450223,218.744223 286.495052,219.035471 286.53991,219.337932 C286.797751,220.883818 286.977126,222.440832 286.977126,224.020386 L286.977126,250.905492 C286.999541,270.733377 270.945593,286.775256 251.125086,286.775256 L251.125,286.774038 Z M80.71875,179.245083 C80.71875,184.196531 76.705342,188.195601 71.75,188.195601 C66.794658,188.195601 62.770057,184.196531 62.770057,179.245083 C62.770057,174.293635 66.794658,170.272197 71.75,170.272197 C76.705342,170.272197 80.71875,174.293635 80.71875,179.245083 Z" id="Page-1"></path>
                <g id="Page-1" transform="translate(83.401709, 191.182979)">
                    <polygon id="Fill-1" points="44.3598974 50.0654298 16.3847564 37.8483472 44.3598974 25.6264851 44.3598974 12.452017 0 33.0041872 0 42.6934877 44.3598974 63.2456579"></polygon>
                    <polygon id="Fill-2" points="77.8677607 0.650757447 65.3440128 0.650757447 46.1370897 65.527966 58.6608376 65.527966"></polygon>
                    <polygon id="Fill-3" points="122.649573 32.7449872 78.2896752 12.4661106 78.2896752 25.6405787 106.85844 37.8479796 78.2896752 50.0553804 78.2896752 63.2298485 122.649573 42.9509719"></polygon>
                </g>
            </g>
        </g>
    </g>
</svg>